<?xml version="1.0" encoding="utf-8"?>
<!-- Generator: Adobe Illustrator 24.3.0, SVG Export Plug-In . SVG Version: 6.00 Build 0)  -->
<svg version="1.1" id="Layer_1" xmlns="http://www.w3.org/2000/svg" xmlns:xlink="http://www.w3.org/1999/xlink" x="0px" y="0px"
	 viewBox="200 200 600 600" style="enable-background:new 200 200 600 60;" xml:space="preserve">
<style type="text/css">
	.st0{fill:#ffffff00;}
	.st1{fill:#414042;}
	.st2{fill:#FEAB41;}
	.st3{fill:#FFFFFF;}
	.st4{fill:#F1F3DD;}
	.st5{fill:#D1D3D4;}
</style>
<g>
	<g>
		<path class="st1" d="M266.4,615.3l-5.8,12c-5.4-3.1-13-5.8-17.4-5.8c-2.6,0-4.3,0.9-4.3,2.8c0,7.7,27.4,3.1,27.4,22.1
			c0,11.1-9.9,16.4-21.6,16.4c-8.9,0-18.6-3.1-25.2-8.3l5.8-11.8c5.4,4.6,14.1,8,19.5,8c3.3,0,5.4-1.1,5.4-3.5
			c0-7.9-27.4-2.9-27.4-21.4c0-10.1,8.6-16.5,21.7-16.5C252.5,609.2,260.7,611.6,266.4,615.3z"/>
		<path class="st1" d="M321,662.3v-19.5h-18.6v19.5h-15.5v-52.4h15.5v20.9H321v-20.9h15.5v52.4H321z"/>
		<path class="st1" d="M360.4,662.3v-52.4h15.5v52.4H360.4z"/>
		<path class="st1" d="M425.4,609.9c12.3,0,20.1,5.2,20.1,13.2c0,5.3-3.4,9.7-8.9,11.3c6.4,1.3,10.5,6.6,10.5,13.2
			c0,9-8.1,14.7-20.6,14.7h-26.8v-52.4H425.4z M415.2,630.5h9.4c3.1,0,5-1.8,5-4.6c0-2.7-1.9-4.3-5-4.3h-9.4V630.5z M415.2,650.7
			h9.4c4,0,6.4-1.9,6.4-5c0-2.8-2.5-4.6-6.4-4.6h-9.4V650.7z"/>
		<path class="st1" d="M482.6,653.9l-3.1,8.4h-16l22.4-52.4h16l21.6,52.4h-16.6l-3.1-8.4H482.6z M493.3,625.5l-6.4,17.1h12.7
			L493.3,625.5z"/>
		<path class="st1" d="M563.2,622.3v40h-15.6v-40h-15.2v-12.4h46.1v12.4H563.2z"/>
		<path class="st1" d="M613.9,621.9v8.2h24.7v12h-24.7v8.3h28v12h-43.6v-52.4h42.8v12H613.9z"/>
		<path class="st1" d="M711.2,618.7l-9,10.6c-3.3-4.2-8.1-7-12.5-7c-7.1,0-12.5,5.8-12.5,13.5c0,7.7,5.4,13.5,12.5,13.5
			c4,0,8.9-2.4,12.5-6.1l9,9.6C705.5,659,696.9,663,689,663c-15.9,0-27.7-11.5-27.7-27c0-15.3,12-26.5,28.2-26.5
			C697.4,609.5,705.9,613.1,711.2,618.7z"/>
		<path class="st1" d="M765,662.3v-19.5h-18.6v19.5h-15.5v-52.4h15.5v20.9H765v-20.9h15.5v52.4H765z"/>
	</g>
	<g>
		<g>
			<circle class="st0" cx="500" cy="453" r="116"/>
		</g>
		<g>
			<g>
				<g>
					<g>
						<path class="st2" d="M547.3,383.8c-21.3-26.1-59.6-30.2-86.5-10c-22.7,17.1-45.2,42.1-41.2,72.4c6.6,49.8,81,49.6,117,41.2
							c10.7-2.5,21.5-6.4,29.2-14.2C591.3,447.4,565.2,405.7,547.3,383.8z"/>
					</g>
				</g>
				<g>
					<g>
						<path class="st3" d="M536.8,488.4c10.7-2.5,21.5-6.4,29.2-14.2c8.6-8.7,11.3-19.2,10.5-30.2c-7.8-10.8-23.7-17.7-41.8-16.8
							c-1.3,0.1-2.7,0.2-4,0.3c-2.9,0.3-5.7-0.4-8-2.2c-5.8-4.7-14.4-7.5-23.9-7c-9.7,0.5-18.2,4.3-23.4,9.8
							c-2.3,2.4-5.4,3.7-8.7,3.6c0,0-0.1,0-0.1,0c-21.6-0.7-39.9,9.8-44.9,24.4C435.8,497,503.2,496.3,536.8,488.4z"/>
					</g>
				</g>
				<g>
					<g>
						<path class="st2" d="M517.7,369.4c0,0,44.2-32.3,53-19.6c8.8,12.7-9,55.8-9,55.8L517.7,369.4z"/>
					</g>
				</g>
				<g>
					<g>
						<path class="st2" d="M478.2,374.7c0,0-43.7-33.1-52.7-20.5c-9,12.6,8,55.9,8,55.9L478.2,374.7z"/>
					</g>
				</g>
				<g>
					<g>
						<g>
							<path class="st1" d="M502.6,461.9c-9.1-8.2-8-26.2-7.9-27l6.2,0.4c-0.3,4.4,0.2,16.8,5.9,22L502.6,461.9z"/>
						</g>
					</g>
				</g>
				<g>
					<g>
						
							<ellipse transform="matrix(0.9986 -5.273611e-02 5.273611e-02 0.9986 -22.0296 26.9258)" class="st1" cx="499.2" cy="430.9" rx="17.6" ry="9.3"/>
					</g>
				</g>
				<g>
					<g>
						<path class="st1" d="M563.7,363.4c0.3-5.1-5-8.5-9.5-6.2c-8.3,4.2-18.8,11.1-17.8,17.8c1.7,11,19.5,18.4,22.8,14
							C561.4,386.3,563.1,373.1,563.7,363.4z"/>
					</g>
				</g>
				<g>
					<g>
						<path class="st1" d="M431.5,367.2c-0.7-5,4.4-8.8,9-6.8c8.5,3.6,19.5,9.7,19,16.5c-0.9,11.1-18.2,19.7-21.8,15.6
							C435.4,389.8,432.8,376.8,431.5,367.2z"/>
					</g>
				</g>
				<g>
					<g>
						<ellipse class="st4" cx="523.2" cy="387.1" rx="10.9" ry="4.7"/>
					</g>
				</g>
				<g>
					<g>
						
							<ellipse transform="matrix(0.8836 -0.4682 0.4682 0.8836 -129.8918 261.9124)" class="st4" cx="461.9" cy="392.2" rx="10.9" ry="4.7"/>
					</g>
				</g>
				<g>
					<g>
						<path class="st1" d="M489.8,462.9c-4.4,0-9.2-0.4-14.4-1.2c-1.8-0.3-3.1-2-2.8-3.9c0.3-1.8,2-3.1,3.9-2.8
							c41.9,6.9,52.7-19.1,53.2-20.2c0.7-1.7,2.6-2.6,4.4-1.9c1.7,0.7,2.6,2.6,1.9,4.4C535.9,437.5,525.6,462.9,489.8,462.9z"/>
					</g>
				</g>
				<g>
					<g>
						<path class="st1" d="M510.8,409.5c-2.7,0.8-4.7-2.5-2.7-4.5c4.4-4.5,10.3-8.5,14.7-8c4,0.4,9.5,3.2,14.2,6.8
							c2.3,1.8,0.5,5.4-2.3,4.8l-9.5-2.1c-1.6-0.4-3.4-0.3-5,0.2L510.8,409.5z"/>
					</g>
				</g>
				<g>
					<g>
						<path class="st1" d="M454.4,419.2c-2.4,1.3-5.1-1.5-3.6-3.8c3.4-5.3,8.4-10.4,12.8-10.8c4-0.4,10,1.2,15.2,3.8
							c2.6,1.3,1.6,5.2-1.3,5.1l-9.7-0.2c-1.7,0-3.3,0.4-4.8,1.2L454.4,419.2z"/>
					</g>
				</g>
			</g>
			<g>
				<g>
					<g>
						<path class="st5" d="M569.7,550.5H429.8c-6.2,0-11.6-4.3-13-10.4l-16.1-72.5c-1.8-8.3,4.5-16.2,13-16.2h168.4
							c8.3,0,14.5,7.4,13.1,15.6l-12.4,72.5C581.8,545.8,576.2,550.5,569.7,550.5z"/>
					</g>
				</g>
				<g>
					<g>
						<g>
							<path class="st1" d="M506.6,501c0.5-1.3,3.8-9.7,1.9-12.3c-1.6-2.2-8,1.8-10.7,3.6c-3.8-1.6-8.2-1.4-12,0.6
								c-3-2-8.4-5.2-9.8-3.2c-1.5,2.1,0.3,8.3,1.3,11.1c-1.9,2.8-3.1,6-2.6,9.5c1.5,11.2,18.1,11.1,26.2,9.2
								c2.4-0.6,4.8-1.4,6.6-3.2C511.7,512.1,509.6,505.9,506.6,501z"/>
						</g>
					</g>
					<g>
						<g>
							<path class="st1" d="M492.2,528.1c-5.9,0-12.5-1.1-17.6-4.6c-4.3-2.9-6.9-7.2-7.5-12.3c-0.5-3.8,0.1-7.7,1.9-11.4
								c-1.9-6.7-1.6-11.3,0.8-14.7c3.5-4.8,9.1-5.1,16.8-0.9c3.3-0.9,6.7-1.1,10.1-0.4c8.5-4.9,14.6-4.8,18.2,0.4
								c1,1.4,3.7,5.3,0.2,16.1c5.5,11.6,0.5,18.7-2.1,21.3c-3.3,3.3-7.4,4.6-10.2,5.3C500,527.6,496.3,528.1,492.2,528.1z
								 M485.7,501.6l0.1,0.3l-2.2,3.2c-1.4,2.1-1.4,3.4-1.3,4.2c0.1,0.7,0.3,1.1,1.1,1.6c3.1,2.2,10.7,2.3,15.8,1.1
								c2.1-0.5,2.7-1,2.9-1.1c0.4-0.4,0-2.8-1.9-6l-2-3.3l0.4-0.9l-3.5-1.4c-1.8-0.7-3.8-0.6-5.5,0.3L485.7,501.6z"/>
						</g>
					</g>
				</g>
				<g>
					<g>
						<path class="st3" d="M507.7,498.6c0.6-1.5,3.8-9.7,1.8-12.6c-1.7-2.5-8.5,1-11.5,3c-4.2-1.7-9.1-1.5-13.2,0.7
							c-3.3-2.2-8.8-4.7-10.4-2.5c-1.7,2.4-0.1,8.1,1,11.2c-2.1,3.1-3.4,6.6-2.9,10.5c1.6,12.3,20,12.2,28.9,10.2
							c2.6-0.6,5.3-1.6,7.2-3.5C513.2,510.8,511,504,507.7,498.6z"/>
					</g>
				</g>
			</g>
		</g>
		<g>
			<g>
				<path class="st1" d="M563.9,346.8c3,0,5.4,0.9,6.9,3c8.1,11.6-6.1,48.7-8.6,54.9c7.3,12.1,13.4,25.9,14.2,39
					c0.1,0.1,0.1,0.2,0.2,0.3c0.2,2.5,0.2,5,0,7.4h5.6c8.3,0,14.5,7.4,13.1,15.6l-12.4,72.5c-1.1,6.4-6.6,11.1-13.1,11.1H429.9
					c-6.2,0-11.6-4.3-13-10.4l-16.1-72.5c-1.8-8.3,4.5-16.2,13-16.2h6.8c-0.4-1.7-0.7-3.4-1-5.2c-2.1-15.7,3-30,11.6-42.6
					c-4.3-12.6-12.5-39.9-5.7-49.4c1.4-2,3.8-2.9,6.7-2.9c10,0,26.9,10.2,37.2,17.1c9.3-5,19.6-7.4,29.7-7.4
					c8.2,0,16.3,1.6,23.9,4.7C532.4,359.4,552.5,346.8,563.9,346.8 M563.9,338.7L563.9,338.7c-11.6,0-28.6,9.3-42,18
					c-7.3-2.5-15-3.8-22.9-3.8c-10,0-20,2.1-29.1,6.2c-16.3-10.5-29-15.9-37.8-15.9c-7.3,0-11.2,3.4-13.3,6.2
					c-4.4,6.2-5.3,15.6-2.8,29.8c1.5,8.3,3.9,16.7,6.1,23.3c-8.3,13.4-12,27.1-11.1,40.9c-5.5,0.7-10.6,3.4-14.1,7.9
					c-4.1,5.1-5.6,11.7-4.2,18.1l16.1,72.5c2.2,9.9,10.8,16.8,20.9,16.8h139.9c10.5,0,19.4-7.5,21.1-17.8l12.4-72.5
					c1.1-6.2-0.7-12.6-4.7-17.4c-3.5-4.2-8.5-6.8-13.8-7.5c0,0,0,0,0-0.1l-0.2-2.3l-0.2-0.3c-1.2-11.2-5.6-23.6-13.1-36.8
					c1.9-5.1,4.9-13.7,7.2-22.7c4.3-17.5,4.1-29-0.9-36.1C575.4,342.2,571.4,338.7,563.9,338.7L563.9,338.7z"/>
			</g>
		</g>
		<g>
			<rect x="414.2" y="443.3" class="st1" width="166.6" height="8.1"/>
		</g>
	</g>
</g>
</svg>
